<?xml version="1.0" encoding="utf-8"?>
<!-- Generator: Adobe Illustrator 19.0.0, SVG Export Plug-In . SVG Version: 6.00 Build 0)  -->
<svg version="1.1" id="Layer_1" xmlns="http://www.w3.org/2000/svg" xmlns:xlink="http://www.w3.org/1999/xlink" x="0px" y="0px"
	 viewBox="0 0 400 400" style="enable-background:new 0 0 400 400;" xml:space="preserve">
<style type="text/css">
	.st0{fill:#0EA5E9;}
	.st1{fill:#737373;}
	.st2{fill:#0369A1;}
	.st3{fill:#525252;}
	.st4{fill:#404040;}
	.st5{fill:#A3A3A3;}
	.st6{fill:#E4E4E7;}
	.st7{fill:#FFFFFF;}
	.st8{fill:#0284C7;}
	.st9{fill:#38BDF8;}
	.st10{fill:#7DD3FC;}
	.st11{fill:#F97316;}
	.st12{fill:#EA580C;}
	.st13{fill:#C2410C;}
	.st14{fill:#FB923C;}
	.st15{fill:#FDBA74;}
	.st16{fill:none;}
</style>
<rect id="XMLID_1_" x="-703.5" y="131" class="st0" width="42" height="42"/>
<rect id="XMLID_12_" x="-745.5" y="131" class="st1" width="42" height="42"/>
<rect id="XMLID_15_" x="-376.1" y="121.7" class="st2" width="62" height="156.6"/>
<rect id="XMLID_14_" x="-745.5" y="173" class="st3" width="42" height="42"/>
<rect id="XMLID_71_" x="-745.5" y="215" class="st4" width="42" height="42"/>
<rect id="XMLID_13_" x="-745.5" y="89" class="st5" width="42" height="42"/>
<rect id="XMLID_70_" x="-745.5" y="47" class="st6" width="42" height="42"/>
<rect id="XMLID_19_" x="-787.5" y="131" class="st7" width="42" height="42"/>
<rect id="XMLID_8_" x="-703.5" y="173" class="st8" width="42" height="42"/>
<rect id="XMLID_9_" x="-703.5" y="215" class="st2" width="42" height="42"/>
<rect id="XMLID_6_" x="-703.5" y="89" class="st9" width="42" height="42"/>
<rect id="XMLID_7_" x="-703.5" y="47" class="st10" width="42" height="42"/>
<rect id="XMLID_3_" x="-661.5" y="131" class="st11" width="42" height="42"/>
<rect id="XMLID_10_" x="-661.5" y="173" class="st12" width="42" height="42"/>
<rect id="XMLID_11_" x="-661.5" y="215" class="st13" width="42" height="42"/>
<rect id="XMLID_4_" x="-661.5" y="89" class="st14" width="42" height="42"/>
<rect id="XMLID_5_" x="-661.5" y="47" class="st15" width="42" height="42"/>
<path id="XMLID_27_" class="st0" d="M-266.5,168.9c-25.1,0-45.5-19.6-47.5-44.4v95.7c14,6.9,30.5,10.7,47.5,10.7
	c17,0,32.5-3.9,47.5-10.8v-95.7C-221,149.3-241.4,168.9-266.5,168.9z"/>
<path id="XMLID_18_" class="st16" d="M-423.3,326.2c26,0,47.1-22.2,47.2-47.2h-94.3C-470.4,304-449.3,326.2-423.3,326.2z"/>
<path id="XMLID_29_" class="st14" d="M-376.1,278.3L-376.1,278.3C-376.1,278.2-376.1,278.3-376.1,278.3L-376.1,278.3z"/>
<path id="XMLID_32_" class="st14" d="M-470.4,278.3L-470.4,278.3C-470.4,278.3-470.4,278.2-470.4,278.3L-470.4,278.3z"/>
<path id="XMLID_33_" class="st15" d="M-423.5,231c26.1,0,47.5,21.1,47.5,47.2v-98.5c-14-6.9-30.6-10.7-47.5-10.7
	s-32.5,3.8-47.5,10.7v98.5C-471,252.1-449.6,231-423.5,231z"/>
<path id="XMLID_21_" class="st9" d="M-266.8,12.5c-48.8,0-90.2,32.1-104.1,76.4c8.3-1.9,17-3,25.9-3c14.2,0,27.9,2.6,40.5,7.4
	c8.7-11.4,22.7-18.8,38.1-18.8c25.9,0,47.5,20.9,47.5,46.8v0.2v3.1v95.7c37-17.6,61.6-55.1,61.6-98.5
	C-157.4,61.4-206.6,12.5-266.8,12.5z"/>
<path id="XMLID_40_" class="st8" d="M-371,88.8c-3.3,10.4-5,21.4-5,32.9c0,43.4,24.9,80.9,61.9,98.5v-95.7v-3.1v-0.1
	c0-10.5,3.5-20.2,9.4-28c-12.6-4.8-26.2-7.4-40.5-7.4C-354,85.9-362.6,86.9-371,88.8z"/>
<path id="XMLID_31_" class="st11" d="M-385.5,306.7c-8.6,11.5-22.3,19.3-37.7,19.3c-26,0-47.1-22-47.2-47h-0.6v-0.8v-98.5
	c-37,17.6-61.7,55.1-61.7,98.5c0,60.3,49,109.2,109.3,109.2c48.8,0,90.3-32.1,104.3-76.3c-8.4,2-17,3-26,3
	C-359.4,314.1-373,311.5-385.5,306.7z"/>
<path id="XMLID_41_" class="st12" d="M-376,179.7v98.5v0.8h-0.1c0,10-3.5,19.9-9.4,27.8c12.6,4.8,26.2,7.3,40.4,7.3
	c8.9,0,17.7-1.1,26-3c3.3-10.4,5-21.4,5-32.9C-314.1,234.8-339,197.3-376,179.7z"/>
<polygon id="XMLID_30_" class="st2" points="-195,244 -195,310.9 -195,350 -234.9,350 -301,350 -301,368 -216.2,368 -176,368 
	-176,329.7 -176,244 "/>
<polygon id="XMLID_43_" class="st0" points="-195,350 -195,310.9 -195,244 -216,244 -216,329 -301,329 -301,350 -234.9,350 "/>
<polygon id="XMLID_17_" class="st0" points="-495,156 -495,89.1 -495,50 -455.1,50 -389,50 -389,32 -473.8,32 -514,32 -514,70.3 
	-514,156 "/>
<polygon id="XMLID_16_" class="st2" points="-495,50 -495,89.1 -495,156 -474,156 -474,71 -389,71 -389,50 -455.1,50 "/>
<rect id="XMLID_42_" x="168.9" y="121.7" class="st5" width="62" height="156.6"/>
<path id="XMLID_39_" class="st6" d="M278.5,168.9c-25.1,0-45.5-19.6-47.5-44.4v95.7c14,6.9,30.5,10.7,47.5,10.7
	c17,0,32.5-3.9,47.5-10.8v-95.7C324,149.3,303.6,168.9,278.5,168.9z"/>
<path id="XMLID_38_" class="st16" d="M121.7,326.2c26,0,47.1-22.2,47.2-47.2H74.6C74.6,304,95.7,326.2,121.7,326.2z"/>
<path id="XMLID_37_" class="st14" d="M168.9,278.3L168.9,278.3C168.9,278.2,168.9,278.3,168.9,278.3L168.9,278.3z"/>
<path id="XMLID_36_" class="st14" d="M74.6,278.3L74.6,278.3C74.6,278.3,74.6,278.2,74.6,278.3L74.6,278.3z"/>
<path id="XMLID_35_" class="st7" d="M121.5,231c26.1,0,47.5,21.1,47.5,47.2v-98.5c-14-6.9-30.6-10.7-47.5-10.7S89,172.8,74,179.7
	v98.5C74,252.1,95.4,231,121.5,231z"/>
<path id="XMLID_34_" class="st7" d="M278.2,12.5c-48.8,0-90.2,32.1-104.1,76.4c8.3-1.9,17-3,25.9-3c14.2,0,27.9,2.6,40.5,7.4
	c8.7-11.4,22.7-18.8,38.1-18.8c25.9,0,47.5,20.9,47.5,46.8v0.2v3.1v95.7c37-17.6,61.6-55.1,61.6-98.5
	C387.6,61.4,338.4,12.5,278.2,12.5z"/>
<path id="XMLID_28_" class="st6" d="M174,88.8c-3.3,10.4-5,21.4-5,32.9c0,43.4,24.9,80.9,61.9,98.5v-95.7v-3.1v-0.1
	c0-10.5,3.5-20.2,9.4-28c-12.6-4.8-26.2-7.4-40.5-7.4C191,85.9,182.4,86.9,174,88.8z"/>
<path id="XMLID_26_" class="st6" d="M159.5,306.7c-8.6,11.5-22.3,19.3-37.7,19.3c-26,0-47.1-22-47.2-47H74v-0.8v-98.5
	c-37,17.6-61.7,55.1-61.7,98.5c0,60.3,49,109.2,109.3,109.2c48.8,0,90.3-32.1,104.3-76.3c-8.4,2-17,3-26,3
	C185.6,314.1,172,311.5,159.5,306.7z"/>
<path id="XMLID_25_" class="st6" d="M169,179.7v98.5v0.8h-0.1c0,10-3.5,19.9-9.4,27.8c12.6,4.8,26.2,7.3,40.4,7.3
	c8.9,0,17.7-1.1,26-3c3.3-10.4,5-21.4,5-32.9C230.9,234.8,206,197.3,169,179.7z"/>
<polygon id="XMLID_24_" class="st6" points="350,244 350,310.9 350,350 310.1,350 244,350 244,368 328.8,368 369,368 369,329.7 
	369,244 "/>
<polygon id="XMLID_23_" class="st7" points="350,350 350,310.9 350,244 329,244 329,329 244,329 244,350 310.1,350 "/>
<polygon id="XMLID_22_" class="st7" points="50,156 50,89.1 50,50 89.9,50 156,50 156,32 71.2,32 31,32 31,70.3 31,156 "/>
<polygon id="XMLID_20_" class="st6" points="50,50 50,89.1 50,156 71,156 71,71 156,71 156,50 89.9,50 "/>
</svg>
